<svg id="Layer_1" version="1.1" viewBox="0 0 64 64" xml:space="preserve" xmlns="http://www.w3.org/2000/svg"><style>.st0{fill:#134563}</style><g id="Icon-Pencil" transform="translate(179 382)"><path class="st0" d="M-168.2-328l3.7-14.9 22.7-22.7 11.2 11.2-22.7 22.7-14.9 3.7zm6.3-13.5l-2.4 9.6 9.6-2.4 20.2-20.2-7.2-7.2-20.2 20.2z" id="Fill-168"/><path class="st0" d="M-155.7-332.6c-1-3.9-4-6.9-7.9-7.9l.7-2.8c4.9 1.2 8.7 5 9.9 9.9l-2.7.8" id="Fill-169"/><path class="st0" id="Fill-170" d="M-156-338.1l-2-2.1 19.9-19.9 2 2-19.9 20"/><path class="st0" d="M-166.2-330l4.4-1.1c-.4-1.6-1.7-2.9-3.3-3.3l-1.1 4.4" id="Fill-171"/><path class="st0" d="M-129.5-355.5l-11.2-11.2 4.5-4.5.7.1c5.4.7 9.7 5 10.4 10.4l.1.7-4.5 4.5zm-7.1-11.2l7.2 7.2 1.4-1.4c-.8-3.6-3.6-6.4-7.2-7.2l-1.4 1.4z" id="Fill-172"/></g></svg>